<mxfile host="Electron" modified="2024-11-21T06:50:19.330Z" agent="Mozilla/5.0 (Windows NT 10.0; Win64; x64) AppleWebKit/537.36 (KHTML, like Gecko) draw.io/21.1.2 Chrome/106.0.5249.199 Electron/21.4.3 Safari/537.36" etag="oJgsOB2Q1Smhecly5WRv" version="21.1.2" type="device">
  <diagram name="Page-1" id="odg-AR6LC2lA5SCZOL1r">
    <mxGraphModel dx="2590" dy="1518" grid="1" gridSize="10" guides="1" tooltips="1" connect="1" arrows="1" fold="1" page="1" pageScale="1" pageWidth="1700" pageHeight="1100" math="0" shadow="0">
      <root>
        <mxCell id="0" />
        <mxCell id="1" parent="0" />
        <mxCell id="soIn2TEtsZu9Liav-SbZ-1" value="Start" style="strokeWidth=2;html=1;shape=mxgraph.flowchart.terminator;whiteSpace=wrap;fontSize=18;" vertex="1" parent="1">
          <mxGeometry x="770" y="170" width="100" height="60" as="geometry" />
        </mxCell>
        <mxCell id="soIn2TEtsZu9Liav-SbZ-2" value="Stop" style="strokeWidth=2;html=1;shape=mxgraph.flowchart.terminator;whiteSpace=wrap;fontSize=18;" vertex="1" parent="1">
          <mxGeometry x="770" y="890" width="100" height="60" as="geometry" />
        </mxCell>
        <mxCell id="soIn2TEtsZu9Liav-SbZ-13" value="" style="edgeStyle=orthogonalEdgeStyle;rounded=0;orthogonalLoop=1;jettySize=auto;html=1;" edge="1" parent="1" source="soIn2TEtsZu9Liav-SbZ-3" target="soIn2TEtsZu9Liav-SbZ-4">
          <mxGeometry relative="1" as="geometry" />
        </mxCell>
        <mxCell id="soIn2TEtsZu9Liav-SbZ-3" value="INPUT fn" style="shape=parallelogram;perimeter=parallelogramPerimeter;whiteSpace=wrap;html=1;fixedSize=1;fontSize=18;" vertex="1" parent="1">
          <mxGeometry x="695" y="520" width="250" height="60" as="geometry" />
        </mxCell>
        <mxCell id="soIn2TEtsZu9Liav-SbZ-14" value="" style="edgeStyle=orthogonalEdgeStyle;rounded=0;orthogonalLoop=1;jettySize=auto;html=1;" edge="1" parent="1" source="soIn2TEtsZu9Liav-SbZ-4" target="soIn2TEtsZu9Liav-SbZ-6">
          <mxGeometry relative="1" as="geometry" />
        </mxCell>
        <mxCell id="soIn2TEtsZu9Liav-SbZ-4" value="INPUT ln" style="shape=parallelogram;perimeter=parallelogramPerimeter;whiteSpace=wrap;html=1;fixedSize=1;fontSize=18;" vertex="1" parent="1">
          <mxGeometry x="687.5" y="640" width="265" height="60" as="geometry" />
        </mxCell>
        <mxCell id="soIn2TEtsZu9Liav-SbZ-15" value="" style="edgeStyle=orthogonalEdgeStyle;rounded=0;orthogonalLoop=1;jettySize=auto;html=1;" edge="1" parent="1" source="soIn2TEtsZu9Liav-SbZ-6" target="soIn2TEtsZu9Liav-SbZ-2">
          <mxGeometry relative="1" as="geometry" />
        </mxCell>
        <mxCell id="soIn2TEtsZu9Liav-SbZ-6" value="&lt;font style=&quot;font-size: 18px;&quot;&gt;OUTPUT&amp;nbsp; fn + ln + &quot; TC, RMUTL Chiang Mai, Thailand&quot;&lt;/font&gt;" style="shape=parallelogram;perimeter=parallelogramPerimeter;whiteSpace=wrap;html=1;fixedSize=1;fontSize=18;" vertex="1" parent="1">
          <mxGeometry x="610" y="760" width="420" height="60" as="geometry" />
        </mxCell>
        <mxCell id="soIn2TEtsZu9Liav-SbZ-7" value="fn = &quot; &quot;" style="rounded=0;whiteSpace=wrap;html=1;fontSize=18;" vertex="1" parent="1">
          <mxGeometry x="760" y="290" width="120" height="60" as="geometry" />
        </mxCell>
        <mxCell id="soIn2TEtsZu9Liav-SbZ-8" value="ln = &quot; &quot;" style="rounded=0;whiteSpace=wrap;html=1;fontSize=18;" vertex="1" parent="1">
          <mxGeometry x="760" y="400" width="120" height="60" as="geometry" />
        </mxCell>
        <mxCell id="soIn2TEtsZu9Liav-SbZ-9" value="" style="endArrow=classic;html=1;rounded=0;entryX=0.5;entryY=0;entryDx=0;entryDy=0;exitX=0.5;exitY=1;exitDx=0;exitDy=0;exitPerimeter=0;" edge="1" parent="1" source="soIn2TEtsZu9Liav-SbZ-1" target="soIn2TEtsZu9Liav-SbZ-7">
          <mxGeometry width="50" height="50" relative="1" as="geometry">
            <mxPoint x="500" y="570" as="sourcePoint" />
            <mxPoint x="550" y="520" as="targetPoint" />
          </mxGeometry>
        </mxCell>
        <mxCell id="soIn2TEtsZu9Liav-SbZ-10" value="" style="endArrow=classic;html=1;rounded=0;entryX=0.5;entryY=0;entryDx=0;entryDy=0;exitX=0.5;exitY=1;exitDx=0;exitDy=0;" edge="1" parent="1" source="soIn2TEtsZu9Liav-SbZ-7" target="soIn2TEtsZu9Liav-SbZ-8">
          <mxGeometry width="50" height="50" relative="1" as="geometry">
            <mxPoint x="610" y="600" as="sourcePoint" />
            <mxPoint x="660" y="550" as="targetPoint" />
          </mxGeometry>
        </mxCell>
        <mxCell id="soIn2TEtsZu9Liav-SbZ-11" value="" style="endArrow=classic;html=1;rounded=0;entryX=0.5;entryY=0;entryDx=0;entryDy=0;exitX=0.5;exitY=1;exitDx=0;exitDy=0;" edge="1" parent="1" source="soIn2TEtsZu9Liav-SbZ-8" target="soIn2TEtsZu9Liav-SbZ-3">
          <mxGeometry width="50" height="50" relative="1" as="geometry">
            <mxPoint x="650" y="700" as="sourcePoint" />
            <mxPoint x="700" y="650" as="targetPoint" />
          </mxGeometry>
        </mxCell>
      </root>
    </mxGraphModel>
  </diagram>
</mxfile>
